# xmcd CD database file
#
# Track frame offsets:
#	150
#	14534
#	35752
#	51392
#	69110
#	88468
#	105573
#	120268
#	133837
#	152355
#	167775
#	189958
#
# Disc length: 2713 seconds
#
# Revision: 3
# Processed by: cddbd v1.5.1PL0 Copyright (c) Steve Scherf et al.
# Submitted via: Feurio! 1.67 - http://www.feurio.com
#
DISCID=9b0a970c
DTITLE=Various Artist - What I Do
DYEAR=1900
DGENRE=
TTITLE0=Too Much Of A Good Thing
TTITLE1=Rainy Day In June
TTITLE2=USA Today
TTITLE3=If Love Was A River
TTITLE4=If French Fries Were Fat Free
TTITLE5=You Don't Have To Paint Me A Picture
TTITLE6=Alan Jackson - There Ya Go
TTITLE7=Alan Jackson - The Talkin' Song Repair Blues
TTITLE8=Alan Jackson - Strong Enough
TTITLE9=Alan Jackson - Monday Morning Church
TTITLE10=Alan Jackson - Burnin' The Honky Tonks Down
TTITLE11=Alan Jackson - To Do What I Do (Live)
EXTD=
EXTT0=
EXTT1=
EXTT2=
EXTT3=
EXTT4=
EXTT5=
EXTT6=
EXTT7=
EXTT8=
EXTT9=
EXTT10=
EXTT11=
PLAYORDER=
